<svg id="visual" viewBox="0 0 960 300" width="960" height="300" xmlns="http://www.w3.org/2000/svg" xmlns:xlink="http://www.w3.org/1999/xlink" version="1.1"><rect x="0" y="0" width="960" height="300" fill="#FF0066"></rect><g transform="translate(471.55950146035224 150.50731941642263)"><path d="M58.3 -93.8C80 -88.5 104.9 -81.8 116.4 -65.9C127.9 -50 126 -25 115.1 -6.2C104.3 12.5 84.6 25 73.9 42.2C63.1 59.4 61.3 81.2 50.5 91.8C39.7 102.4 19.8 101.7 -1.8 104.9C-23.5 108 -47 115.1 -62 106.9C-77 98.7 -83.5 75.4 -88.3 55C-93 34.7 -96 17.3 -100.4 -2.5C-104.7 -22.3 -110.4 -44.7 -105.3 -64.4C-100.2 -84.2 -84.3 -101.4 -65 -108.1C-45.7 -114.8 -22.8 -110.9 -2.3 -107C18.3 -103.1 36.7 -99.2 58.3 -93.8" fill="#ff8b00"></path></g></svg>