<svg id="visual" viewBox="0 0 960 300" width="960" height="300" xmlns="http://www.w3.org/2000/svg" xmlns:xlink="http://www.w3.org/1999/xlink" version="1.1"><rect x="0" y="0" width="960" height="300" fill="#FF0066"></rect><g transform="translate(493.4086724465739 138.09558414427522)"><path d="M50.1 -89.4C61.5 -80.1 64.9 -59.8 73.6 -43.1C82.3 -26.3 96.1 -13.2 100.5 2.5C104.8 18.2 99.6 36.3 88.9 49.6C78.3 62.9 62.1 71.3 46.4 84.7C30.7 98.1 15.3 116.6 -2.8 121.5C-21 126.4 -42 117.7 -52.8 101.5C-63.7 85.2 -64.3 61.4 -78.8 43.2C-93.3 25 -121.7 12.5 -127.6 -3.4C-133.5 -19.3 -117 -38.7 -102.1 -56.1C-87.1 -73.6 -73.8 -89.2 -57.1 -95.4C-40.3 -101.5 -20.2 -98.3 -0.4 -97.5C19.3 -96.8 38.7 -98.6 50.1 -89.4" fill="#ff8b00"></path></g></svg>