<svg id="visual" viewBox="0 0 960 300" width="960" height="300" xmlns="http://www.w3.org/2000/svg" xmlns:xlink="http://www.w3.org/1999/xlink" version="1.1"><rect x="0" y="0" width="960" height="300" fill="#202731"></rect><path d="M0 130L20 123.2C40 116.3 80 102.7 120 103.7C160 104.7 200 120.3 240 127.3C280 134.3 320 132.7 360 123C400 113.3 440 95.7 480 91C520 86.3 560 94.7 600 104.5C640 114.3 680 125.7 720 130.2C760 134.7 800 132.3 840 120.7C880 109 920 88 940 77.5L960 67L960 0L940 0C920 0 880 0 840 0C800 0 760 0 720 0C680 0 640 0 600 0C560 0 520 0 480 0C440 0 400 0 360 0C320 0 280 0 240 0C200 0 160 0 120 0C80 0 40 0 20 0L0 0Z" fill="#dddd33"></path><path d="M0 90L20 95C40 100 80 110 120 108.2C160 106.3 200 92.7 240 86C280 79.3 320 79.7 360 81.2C400 82.7 440 85.3 480 87.8C520 90.3 560 92.7 600 93.2C640 93.7 680 92.3 720 91.3C760 90.3 800 89.7 840 83.7C880 77.7 920 66.3 940 60.7L960 55L960 0L940 0C920 0 880 0 840 0C800 0 760 0 720 0C680 0 640 0 600 0C560 0 520 0 480 0C440 0 400 0 360 0C320 0 280 0 240 0C200 0 160 0 120 0C80 0 40 0 20 0L0 0Z" fill="#e7c016"></path><path d="M0 106L20 100.2C40 94.3 80 82.7 120 78.8C160 75 200 79 240 83.8C280 88.7 320 94.3 360 89.7C400 85 440 70 480 65.5C520 61 560 67 600 71C640 75 680 77 720 81C760 85 800 91 840 91.2C880 91.3 920 85.7 940 82.8L960 80L960 0L940 0C920 0 880 0 840 0C800 0 760 0 720 0C680 0 640 0 600 0C560 0 520 0 480 0C440 0 400 0 360 0C320 0 280 0 240 0C200 0 160 0 120 0C80 0 40 0 20 0L0 0Z" fill="#eba107"></path><path d="M0 38L20 39.5C40 41 80 44 120 50.3C160 56.7 200 66.3 240 68.7C280 71 320 66 360 60.7C400 55.3 440 49.7 480 44.8C520 40 560 36 600 40C640 44 680 56 720 56.7C760 57.3 800 46.7 840 48.8C880 51 920 66 940 73.5L960 81L960 0L940 0C920 0 880 0 840 0C800 0 760 0 720 0C680 0 640 0 600 0C560 0 520 0 480 0C440 0 400 0 360 0C320 0 280 0 240 0C200 0 160 0 120 0C80 0 40 0 20 0L0 0Z" fill="#ec8214"></path><path d="M0 38L20 41C40 44 80 50 120 47.8C160 45.7 200 35.3 240 35.2C280 35 320 45 360 48.5C400 52 440 49 480 47.3C520 45.7 560 45.3 600 41.2C640 37 680 29 720 26.3C760 23.7 800 26.3 840 33C880 39.7 920 50.3 940 55.7L960 61L960 0L940 0C920 0 880 0 840 0C800 0 760 0 720 0C680 0 640 0 600 0C560 0 520 0 480 0C440 0 400 0 360 0C320 0 280 0 240 0C200 0 160 0 120 0C80 0 40 0 20 0L0 0Z" fill="#e76223"></path><path d="M0 38L20 37.7C40 37.3 80 36.7 120 35.3C160 34 200 32 240 29C280 26 320 22 360 23.7C400 25.3 440 32.7 480 35.8C520 39 560 38 600 35.3C640 32.7 680 28.3 720 26.3C760 24.3 800 24.7 840 27C880 29.3 920 33.7 940 35.8L960 38L960 0L940 0C920 0 880 0 840 0C800 0 760 0 720 0C680 0 640 0 600 0C560 0 520 0 480 0C440 0 400 0 360 0C320 0 280 0 240 0C200 0 160 0 120 0C80 0 40 0 20 0L0 0Z" fill="#dd3f31"></path></svg>