<svg id="visual" viewBox="0 0 960 300" width="960" height="300" xmlns="http://www.w3.org/2000/svg" xmlns:xlink="http://www.w3.org/1999/xlink" version="1.1"><rect x="0" y="0" width="960" height="300" fill="#202731"></rect><path d="M0 91L20 88C40 85 80 79 120 88.2C160 97.3 200 121.7 240 133.5C280 145.3 320 144.7 360 133C400 121.3 440 98.7 480 88.8C520 79 560 82 600 92C640 102 680 119 720 120C760 121 800 106 840 98.8C880 91.7 920 92.3 940 92.7L960 93L960 0L940 0C920 0 880 0 840 0C800 0 760 0 720 0C680 0 640 0 600 0C560 0 520 0 480 0C440 0 400 0 360 0C320 0 280 0 240 0C200 0 160 0 120 0C80 0 40 0 20 0L0 0Z" fill="#ff8b00"></path><path d="M0 60L20 67.2C40 74.3 80 88.7 120 94.5C160 100.3 200 97.7 240 97.7C280 97.7 320 100.3 360 95.3C400 90.3 440 77.7 480 75.3C520 73 560 81 600 87.3C640 93.7 680 98.3 720 94.8C760 91.3 800 79.7 840 72.7C880 65.7 920 63.3 940 62.2L960 61L960 0L940 0C920 0 880 0 840 0C800 0 760 0 720 0C680 0 640 0 600 0C560 0 520 0 480 0C440 0 400 0 360 0C320 0 280 0 240 0C200 0 160 0 120 0C80 0 40 0 20 0L0 0Z" fill="#ff7621"></path><path d="M0 105L20 96C40 87 80 69 120 68.2C160 67.3 200 83.7 240 85.7C280 87.7 320 75.3 360 67.7C400 60 440 57 480 54.7C520 52.3 560 50.7 600 54.5C640 58.3 680 67.7 720 68.5C760 69.3 800 61.7 840 64.7C880 67.7 920 81.3 940 88.2L960 95L960 0L940 0C920 0 880 0 840 0C800 0 760 0 720 0C680 0 640 0 600 0C560 0 520 0 480 0C440 0 400 0 360 0C320 0 280 0 240 0C200 0 160 0 120 0C80 0 40 0 20 0L0 0Z" fill="#ff6034"></path><path d="M0 74L20 70C40 66 80 58 120 56.3C160 54.7 200 59.3 240 57.8C280 56.3 320 48.7 360 45.3C400 42 440 43 480 46C520 49 560 54 600 55.5C640 57 680 55 720 58.2C760 61.3 800 69.7 840 66.5C880 63.3 920 48.7 940 41.3L960 34L960 0L940 0C920 0 880 0 840 0C800 0 760 0 720 0C680 0 640 0 600 0C560 0 520 0 480 0C440 0 400 0 360 0C320 0 280 0 240 0C200 0 160 0 120 0C80 0 40 0 20 0L0 0Z" fill="#ff4a44"></path><path d="M0 51L20 49.3C40 47.7 80 44.3 120 44.3C160 44.3 200 47.7 240 47.5C280 47.3 320 43.7 360 40.2C400 36.7 440 33.3 480 36.7C520 40 560 50 600 53.3C640 56.7 680 53.3 720 48C760 42.7 800 35.3 840 31.5C880 27.7 920 27.3 940 27.2L960 27L960 0L940 0C920 0 880 0 840 0C800 0 760 0 720 0C680 0 640 0 600 0C560 0 520 0 480 0C440 0 400 0 360 0C320 0 280 0 240 0C200 0 160 0 120 0C80 0 40 0 20 0L0 0Z" fill="#ff2f54"></path><path d="M0 34L20 35C40 36 80 38 120 35C160 32 200 24 240 19.8C280 15.7 320 15.3 360 18.8C400 22.3 440 29.7 480 28.8C520 28 560 19 600 17C640 15 680 20 720 20C760 20 800 15 840 17.3C880 19.7 920 29.3 940 34.2L960 39L960 0L940 0C920 0 880 0 840 0C800 0 760 0 720 0C680 0 640 0 600 0C560 0 520 0 480 0C440 0 400 0 360 0C320 0 280 0 240 0C200 0 160 0 120 0C80 0 40 0 20 0L0 0Z" fill="#ff0066"></path></svg>